# xmcd
#
# Track frame offsets:
#	150
#	16537
#	29343
#	44305
#	63423
#	72423
#	85096
#	99758
#	117337
#	130799
#	140472
#	168483
#	177364
#	190639
#	202863
#	218088
#	231362
#	243661
#	259148
#	276661
#	289973
#	299498
#	311535
#	333037
#
# Disc length: 4610 seconds
#
# Revision: 1
# Processed by: cddbd v1.5.2PL0 Copyright (c) Steve Scherf et al.
# Submitted via: EasyCDDAExtractor 16.0.8.1
#
DISCID=62120018
DTITLE=Ray Charles
DYEAR=1999
DGENRE=Pop-Folk
TTITLE0=GIORGIA ON MY MIND
TTITLE1=UNCHAIN MY HEART
TTITLE2=HERE WE GO AGAIN
TTITLE3=I CAN'T STOP LOVING YOU
TTITLE4=HIT THE ROAD JACK
TTITLE5=YESTERDAY
TTITLE6=BORN TO LOOSE
TTITLE7=WHAT' D I SAY
TTITLE8=ELANOR RIGBY
TTITLE9=YES INDEED
TTITLE10=I'VE GOT A WOMEN
TTITLE11=JUST YOU JUST ME (with BETTY CARTER)
TTITLE12=LET'S GO GET STONED
TTITLE13=MESS AROUND
TTITLE14=DROWN IN MY OWN TEARS
TTITLE15=TAKE THESE CHAINS FROM MY HEART
TTITLE16=IT HAD TO BE YOU
TTITLE17=YOU AND I (with BETTY CARTER)
TTITLE18=RUBY
TTITLE19=CRYING TIME
TTITLE20=BUSTED
TTITLE21=TOGETHER AGAIN
TTITLE22=ALONE TOGETHER (with BETTY CARTER)
TTITLE23=MAKIN' BELIVE
EXTD=
EXTT0=
EXTT1=
EXTT2=
EXTT3=
EXTT4=
EXTT5=
EXTT6=
EXTT7=
EXTT8=
EXTT9=
EXTT10=
EXTT11=
EXTT12=
EXTT13=
EXTT14=
EXTT15=
EXTT16=
EXTT17=
EXTT18=
EXTT19=
EXTT20=
EXTT21=
EXTT22=
EXTT23=
PLAYORDER=
